<svg width="51" height="34" viewBox="0 0 51 34" fill="none" xmlns="http://www.w3.org/2000/svg">
<path d="M19.8318 2.5515V9H19.0668V4.2615C19.0668 4.1985 19.0683 4.131 19.0713 4.059C19.0773 3.987 19.0833 3.9135 19.0893 3.8385L16.8753 7.8705C16.8063 8.0055 16.7013 8.073 16.5603 8.073H16.4343C16.2933 8.073 16.1883 8.0055 16.1193 7.8705L13.8603 3.8205C13.8783 3.9795 13.8873 4.1265 13.8873 4.2615V9H13.1223V2.5515H13.7658C13.8438 2.5515 13.9038 2.559 13.9458 2.574C13.9878 2.589 14.0283 2.631 14.0673 2.7L16.2948 6.669C16.3308 6.741 16.3653 6.816 16.3983 6.894C16.4343 6.972 16.4673 7.0515 16.4973 7.1325C16.5273 7.0515 16.5588 6.972 16.5918 6.894C16.6248 6.813 16.6608 6.7365 16.6998 6.6645L18.8868 2.7C18.9228 2.631 18.9618 2.589 19.0038 2.574C19.0488 2.559 19.1103 2.5515 19.1883 2.5515H19.8318ZM27.4387 5.778C27.4387 6.261 27.3622 6.705 27.2092 7.11C27.0562 7.512 26.8402 7.8585 26.5612 8.1495C26.2822 8.4405 25.9462 8.667 25.5532 8.829C25.1632 8.988 24.7312 9.0675 24.2572 9.0675C23.7832 9.0675 23.3512 8.988 22.9612 8.829C22.5712 8.667 22.2367 8.4405 21.9577 8.1495C21.6787 7.8585 21.4627 7.512 21.3097 7.11C21.1567 6.705 21.0802 6.261 21.0802 5.778C21.0802 5.295 21.1567 4.8525 21.3097 4.4505C21.4627 4.0455 21.6787 3.6975 21.9577 3.4065C22.2367 3.1125 22.5712 2.8845 22.9612 2.7225C23.3512 2.5605 23.7832 2.4795 24.2572 2.4795C24.7312 2.4795 25.1632 2.5605 25.5532 2.7225C25.9462 2.8845 26.2822 3.1125 26.5612 3.4065C26.8402 3.6975 27.0562 4.0455 27.2092 4.4505C27.3622 4.8525 27.4387 5.295 27.4387 5.778ZM26.5432 5.778C26.5432 5.382 26.4892 5.0265 26.3812 4.7115C26.2732 4.3965 26.1202 4.131 25.9222 3.915C25.7242 3.696 25.4842 3.528 25.2022 3.411C24.9202 3.294 24.6052 3.2355 24.2572 3.2355C23.9122 3.2355 23.5987 3.294 23.3167 3.411C23.0347 3.528 22.7932 3.696 22.5922 3.915C22.3942 4.131 22.2412 4.3965 22.1332 4.7115C22.0252 5.0265 21.9712 5.382 21.9712 5.778C21.9712 6.174 22.0252 6.5295 22.1332 6.8445C22.2412 7.1565 22.3942 7.422 22.5922 7.641C22.7932 7.857 23.0347 8.0235 23.3167 8.1405C23.5987 8.2545 23.9122 8.3115 24.2572 8.3115C24.6052 8.3115 24.9202 8.2545 25.2022 8.1405C25.4842 8.0235 25.7242 7.857 25.9222 7.641C26.1202 7.422 26.2732 7.1565 26.3812 6.8445C26.4892 6.5295 26.5432 6.174 26.5432 5.778ZM30.4743 5.6745C30.7263 5.6745 30.9483 5.6445 31.1403 5.5845C31.3353 5.5215 31.4973 5.4345 31.6263 5.3235C31.7583 5.2095 31.8573 5.0745 31.9233 4.9185C31.9893 4.7625 32.0223 4.59 32.0223 4.401C32.0223 4.017 31.8963 3.7275 31.6443 3.5325C31.3923 3.3375 31.0143 3.24 30.5103 3.24H29.5563V5.6745H30.4743ZM33.4533 9H32.6793C32.5203 9 32.4033 8.9385 32.3283 8.8155L30.6543 6.5115C30.6033 6.4395 30.5478 6.3885 30.4878 6.3585C30.4308 6.3255 30.3408 6.309 30.2178 6.309H29.5563V9H28.6878V2.5515H30.5103C30.9183 2.5515 31.2708 2.5935 31.5678 2.6775C31.8648 2.7585 32.1093 2.877 32.3013 3.033C32.4963 3.189 32.6403 3.378 32.7333 3.6C32.8263 3.819 32.8728 4.065 32.8728 4.338C32.8728 4.566 32.8368 4.779 32.7648 4.977C32.6928 5.175 32.5878 5.3535 32.4498 5.5125C32.3148 5.6685 32.1483 5.802 31.9503 5.913C31.7553 6.024 31.5333 6.108 31.2843 6.165C31.3953 6.228 31.4913 6.3195 31.5723 6.4395L33.4533 9ZM38.3083 8.289L38.3038 9H34.3303V2.5515H38.3038V3.2625H35.2033V5.4045H37.7143V6.0885H35.2033V8.289H38.3083Z" fill="white"/>
<path d="M15.1816 23.1239L26.3679 30.327" stroke="white" stroke-width="3"/>
<path d="M25.5722 30.5531L36.5588 22.78" stroke="white" stroke-width="3"/>
</svg>
