<svg xmlns="http://www.w3.org/2000/svg" viewBox="0 0 80 80"><defs><style>.cls-1{fill:#00eff6;}.cls-2{fill:#fff;}</style></defs><title>header_logo_1</title><g id="Layer_2" data-name="Layer 2"><g id="Layer_2-2" data-name="Layer 2"><rect width="80" height="80"/><polygon class="cls-1" points="45.78 22.53 33.34 12.25 22.66 12.25 22.68 12.26 22.66 12.26 22.66 48.64 29.46 48.64 29.46 17.87 45.58 31.19 45.78 22.53"/><polygon class="cls-1" points="57.34 12.25 50.54 12.25 50.54 43.02 34.42 29.7 34.22 38.37 46.66 48.64 57.34 48.64 57.32 48.63 57.34 48.63 57.34 12.25"/><path class="cls-2" d="M26.12,69.43V58.76h1.51l3.42,5.4A29.44,29.44,0,0,1,33,67.62h0c-.12-1.43-.15-2.73-.15-4.39V58.76h1.29V69.43H32.74L29.35,64a33.66,33.66,0,0,1-2-3.56l-.05,0c.08,1.34.11,2.62.11,4.4v4.56Z"/><path class="cls-2" d="M38.2,59.61a.82.82,0,0,1-.88.86.83.83,0,0,1-.84-.86.85.85,0,0,1,.87-.87A.82.82,0,0,1,38.2,59.61Zm-1.55,9.82V61.76H38v7.67Z"/><path class="cls-2" d="M45.82,69.14a5.13,5.13,0,0,1-2.2.45,3.65,3.65,0,0,1-3.82-3.91,3.9,3.9,0,0,1,4.12-4.07,4.67,4.67,0,0,1,1.93.39l-.32,1.08a3.19,3.19,0,0,0-1.61-.37,2.65,2.65,0,0,0-2.71,2.9,2.63,2.63,0,0,0,2.66,2.87,4,4,0,0,0,1.71-.38Z"/><path class="cls-2" d="M48.83,65.28h0c.19-.27.46-.6.68-.87l2.25-2.65h1.68l-3,3.16,3.37,4.51h-1.7l-2.64-3.67-.71.79v2.88H47.45V58.19h1.38Z"/><text/><text/></g></g></svg>