<svg xmlns="http://www.w3.org/2000/svg" width="94" height="95.285" viewBox="0 0 94 95.285">
  <g id="employee" transform="translate(0 -16.224)">
    <g id="Group_11" data-name="Group 11" transform="translate(0 16.224)">
      <path id="Path_30" data-name="Path 30" d="M92.623,96.83a1.437,1.437,0,0,0-1.377,1.49v9.957a.242.242,0,0,1-.232.251H85.782V86.756a1.381,1.381,0,1,0-2.754,0v21.773H72.918l2.736-3.258a2.517,2.517,0,0,0,.533-1.912c0-.015,0-.03-.006-.045L73.1,83.644l.566-.922.147.113a2.022,2.022,0,0,0,1.771.361,2.2,2.2,0,0,0,1.406-1.221h0l3.13-6.79,7.15,3a7.392,7.392,0,0,1,3.97,6.725v6.458a1.381,1.381,0,1,0,2.754,0V84.907a10.334,10.334,0,0,0-5.682-9.484l-.026-.011-12.175-5.1V67.594a11.1,11.1,0,0,0,3.636-6.758,4.637,4.637,0,0,0,2.557-1.219,5.309,5.309,0,0,0,1.647-3.888,5.39,5.39,0,0,0-1.069-3.246V48.462c0-7.87-5.916-14.272-13.187-14.272a12.556,12.556,0,0,0-8.559,3.427,5.38,5.38,0,0,0-1.066-3.1V30.5c0-7.87-5.916-14.272-13.187-14.272S33.7,22.626,33.7,30.5v4.126A5.1,5.1,0,0,0,32.637,37.6a12.823,12.823,0,0,0-5.193-2.944,1.37,1.37,0,0,0-1.682,1.062,1.506,1.506,0,0,0,.981,1.821,11.181,11.181,0,0,1,7.768,10.918V50.69c-.059-.013-.25-.049-.258-.05a1.807,1.807,0,0,0-.329-1.007c-.352-.548-.986-1.231-3.022-3.6a2.058,2.058,0,0,0-2.79-.368,18.571,18.571,0,0,1-11.656,3.472,2.191,2.191,0,0,0-2.422,1.526c-.03.005-.371.08-.39.085V48.462a11.291,11.291,0,0,1,7.419-10.811,1.514,1.514,0,0,0,.921-1.857,1.363,1.363,0,0,0-1.716-1,13.343,13.343,0,0,0-6.724,5.076,14.921,14.921,0,0,0-2.655,8.589v4.126a5.1,5.1,0,0,0-1.069,3.141,5.021,5.021,0,0,0,4.211,5.108A11.2,11.2,0,0,0,17.87,67.77v2.54l-12.162,5.1-.026.011A10.332,10.332,0,0,0,0,84.907v23.37a3.12,3.12,0,0,0,2.986,3.232h42.4A2.807,2.807,0,0,0,47,111a2.805,2.805,0,0,0,1.609.514h42.4A3.119,3.119,0,0,0,94,108.277V98.32A1.437,1.437,0,0,0,92.623,96.83ZM13.9,57.758a2.149,2.149,0,0,1-1.323-2.029A2.191,2.191,0,0,1,13.9,53.789ZM77.546,74.1l-2.7,5.863L71.8,77.626l3.38-4.515ZM69.808,75.55l-3.561-4.757v-1.43A10.34,10.34,0,0,0,69.825,70h0a9.5,9.5,0,0,0,3.536-.7v1.5ZM71.424,81l-.507.825H68.7L68.191,81l1.617-1.242ZM47,57.584l-3.561-4.757V51.4a10.339,10.339,0,0,0,3.578.633h0a9.494,9.494,0,0,0,3.536-.7v1.5Zm1.617,5.445-.507.825h-2.22l-.507-.825L47,61.787Zm-12.46-20.3a4.593,4.593,0,0,0,.691.143A11.2,11.2,0,0,0,40.681,49.8v2.54l-2.809,1.178a5.183,5.183,0,0,0-.608-1.039V48.462A15.242,15.242,0,0,0,36.153,42.728ZM54.313,41.15c0,4.362-3.288,7.9-7.3,7.9a7.662,7.662,0,0,1-7.55-7.9V34.169a21.268,21.268,0,0,0,12.558-3.694c1.242,1.441,1.98,2.278,2.292,2.667C54.313,36.852,54.313,38.285,54.313,41.15Zm2.627,1.72a4.62,4.62,0,0,0,.688-.143,15.186,15.186,0,0,0-1.116,5.735v4.126a5.128,5.128,0,0,0-.545.871L53.3,52.342V49.628A11.1,11.1,0,0,0,56.941,42.87ZM41.621,55.148,45,59.663,42.7,61.435l0,0L41.961,62l-2.7-5.863Zm8.544,2.938,2.2-2.94,2.368.992L52.032,62l-.733-.563,0,0L48.987,59.66Zm.694,6.67.147.113a2.021,2.021,0,0,0,1.771.361,2.2,2.2,0,0,0,1.406-1.221h0l2.324-5.041a4.748,4.748,0,0,0,3.143,1.873,11.015,11.015,0,0,0,3.842,6.928v2.539L51.786,75.221l-1.493-9.543Zm13.573,8.358,3.38,4.516-3.04,2.337L62.07,74.1Zm12.692-14c0,4.255-3.193,7.9-7.3,7.9a7.665,7.665,0,0,1-7.55-7.9V52.136a21.278,21.278,0,0,0,12.558-3.694c1.242,1.441,1.98,2.278,2.292,2.667C77.124,54.819,77.124,56.251,77.124,59.116ZM81.2,55.729a2.149,2.149,0,0,1-1.323,2.029V53.7A2.146,2.146,0,0,1,81.2,55.729ZM59.267,48.462c0-6.226,4.68-11.291,10.433-11.291s10.433,5.065,10.433,11.291V50.69c-.063-.014-.235-.046-.258-.05a1.807,1.807,0,0,0-.329-1.007c-.362-.563-.988-1.234-3.022-3.6a2.06,2.06,0,0,0-2.79-.368,18.6,18.6,0,0,1-11.758,3.467,2.161,2.161,0,0,0-2.319,1.531c-.031.005-.371.08-.39.085V48.462Zm.254,5.328v3.966A2.144,2.144,0,0,1,58.2,55.729,2.19,2.19,0,0,1,59.521,53.79ZM58.39,37.763a2.222,2.222,0,0,1-.688,1.628,2.008,2.008,0,0,1-.634.4V35.738A2.147,2.147,0,0,1,58.39,37.763ZM46.888,19.2c5.753,0,10.433,5.065,10.433,11.291v2.229c-.062-.014-.235-.046-.258-.05a1.893,1.893,0,0,0-.39-1.1c-.369-.54-1.048-1.283-2.961-3.507a2.059,2.059,0,0,0-2.79-.368A18.552,18.552,0,0,1,39.054,31.16,2.188,2.188,0,0,0,36.846,32.7c-.031.005-.371.08-.39.085V30.5h0C36.456,24.27,41.136,19.2,46.888,19.2ZM36.71,35.823v3.969a2.149,2.149,0,0,1-1.323-2.029A2.192,2.192,0,0,1,36.71,35.823ZM34.256,53.7a2.114,2.114,0,0,1,1.314,1.9,2.151,2.151,0,0,1-1.314,2.157Zm-.128,7.137A4.767,4.767,0,0,0,37.4,58.785l2.408,5.224h0a2.194,2.194,0,0,0,1.405,1.221,2.022,2.022,0,0,0,1.771-.361l.147-.113.566.922-1.492,9.541-11.714-4.91V67.6h0A11.11,11.11,0,0,0,34.128,60.841ZM24.185,75.55l-3.561-4.757v-1.43A10.336,10.336,0,0,0,24.2,70h0a9.492,9.492,0,0,0,3.536-.7v1.5ZM25.8,81l-.507.825h-2.22L22.569,81l1.617-1.242Zm3.753-7.883,2.368.993-2.7,5.863-.733-.564,0,0-2.309-1.775Zm-12.9-14V52.136A21.288,21.288,0,0,0,29.21,48.442c1.23,1.427,1.98,2.278,2.292,2.667v8.008c0,4.334-3.265,7.9-7.3,7.9A7.658,7.658,0,0,1,16.652,59.116Zm2.158,14,3.38,4.516L19.885,79.4l0,0-.732.563-2.7-5.863Zm-7.838,35.415V86.756A1.437,1.437,0,0,0,9.6,85.266a1.437,1.437,0,0,0-1.377,1.49v21.773H2.986a.242.242,0,0,1-.232-.251V84.907a7.391,7.391,0,0,1,3.968-6.724l7.146-3L17,81.975h0A2.194,2.194,0,0,0,18.4,83.2a2.021,2.021,0,0,0,1.771-.361l.147-.113.566.922-3.076,19.67c0,.015,0,.03-.006.045a2.519,2.519,0,0,0,.534,1.912l2.736,3.258h-10.1Zm9.6-5.026L23.5,84.8H24.87l2.925,18.7-3.609,4.3Zm25.047,4.775a.242.242,0,0,1-.232.251H40.159V86.756a1.381,1.381,0,1,0-2.754,0v21.773H27.295l2.736-3.258a2.517,2.517,0,0,0,.533-1.912c0-.015,0-.03-.006-.045l-3.076-19.67.566-.922.147.113a2.043,2.043,0,0,0,1.247.431,2.145,2.145,0,0,0,1.93-1.291h0l3.13-6.789,7.15,3a7.448,7.448,0,0,1,3.97,6.725v23.37ZM47,79.492a10.376,10.376,0,0,0-2.245-2.7l1.557-9.956h1.369L49.239,76.8A10.386,10.386,0,0,0,47,79.492Zm9.595,29.037h0V86.756a1.381,1.381,0,1,0-2.754,0v21.773H48.609a.242.242,0,0,1-.232-.251V84.907a7.4,7.4,0,0,1,3.968-6.724l7.146-3,3.13,6.79h0A2.195,2.195,0,0,0,64.026,83.2a2.022,2.022,0,0,0,1.771-.361l.147-.113.566.922-3.076,19.67c0,.015,0,.03-.006.045a2.519,2.519,0,0,0,.534,1.912l2.736,3.258h-10.1Zm9.6-5.026,2.925-18.7h1.369l2.925,18.7-3.609,4.3Z" transform="translate(0 -16.224)" fill="#fff"/>
    </g>
  </g>
</svg>
