<svg xmlns="http://www.w3.org/2000/svg" width="94" height="94.346" viewBox="0 0 94 94.346">
  <g id="policy" transform="translate(0.001)">
    <path id="Path_25" data-name="Path 25" d="M84.087,0H23.3c-5.275,0-9.567,4.727-9.567,10.517l-.392,59.5H1.482A1.649,1.649,0,0,0,0,71.78v8.189C0,87.635,5.518,93.9,12.177,94.248v.1H63.364v-.111c.381.017.611.111.873.111h.036c7.1-.046,12.829-6.482,12.791-14.379V27.923H92.516A1.668,1.668,0,0,0,94,26.143V11.118C94.009,5.012,89.58.044,84.087,0ZM12.844,90.962h-.01c-5.415,0-9.789-4.975-9.789-10.994V73.4H51.376v6.535A15.181,15.181,0,0,0,55.137,90.1a5.773,5.773,0,0,1,.8.859Zm61.176-11c0,6.021-4.332,11-9.749,11h-.031c-5.444-.044-9.832-4.97-9.819-11.021V71.78A1.681,1.681,0,0,0,52.9,70.019H16.389l.392-59.49c0-3.936,2.926-7.144,6.522-7.144H76.9a12.244,12.244,0,0,0-2.88,7.779ZM90.955,11.148V24.539H77.064V11.16c0-4.236,3.169-7.776,6.978-7.776h.042c3.818.042,6.888,3.505,6.87,7.751Zm0,0" transform="translate(0)" fill="#fff"/>
    <path id="Path_26" data-name="Path 26" d="M168.255,83.9l8.725,5.965a1.666,1.666,0,0,0,1.891,0l8.7-5.964a13.144,13.144,0,0,0,5.254-10.027V61.8a1.654,1.654,0,0,0-.9-1.52l-13.285-6.535a1.663,1.663,0,0,0-1.479,0L163.9,60.264a1.651,1.651,0,0,0-.9,1.52V73.871A13.144,13.144,0,0,0,168.255,83.9ZM166.381,62.84l11.529-5.688,11.529,5.7V73.871A9.752,9.752,0,0,1,185.66,81.1l-7.77,5.314L170.151,81.1a9.747,9.747,0,0,1-3.77-7.229Zm0,0" transform="translate(-133.365 -42.241)" fill="#fff"/>
    <path id="Path_27" data-name="Path 27" d="M205.439,125.749a1.69,1.69,0,0,0,1.2.507h0a1.694,1.694,0,0,0,1.2-.5l6.732-6.735a1.693,1.693,0,0,0-2.393-2.4l-5.53,5.529-2.21-2.232a1.693,1.693,0,0,0-2.405,2.384Zm0,0" transform="translate(-163.829 -91.564)" fill="#fff"/>
    <path id="Path_28" data-name="Path 28" d="M175.308,248H134.692a1.692,1.692,0,1,0,0,3.385h40.615a1.692,1.692,0,0,0,0-3.385Zm0,0" transform="translate(-109.749 -195.538)" fill="#fff"/>
    <path id="Path_29" data-name="Path 29" d="M175.308,285H134.692a1.692,1.692,0,0,0,0,3.385h40.615a1.692,1.692,0,0,0,0-3.385Zm0,0" transform="translate(-109.749 -224.712)" fill="#fff"/>
  </g>
</svg>
