<svg xmlns="http://www.w3.org/2000/svg" width="75.657" height="75.136" viewBox="0 0 75.657 75.136">
  <g id="home" transform="translate(-0.002 0)">
    <path id="Path_22" data-name="Path 22" d="M62.879,53.968a11.135,11.135,0,0,0-1.651.128V48.5a1.121,1.121,0,1,0-2.217,0v12c-.077,0-.153-.007-.23-.007a7.527,7.527,0,0,0-2.423.4V48.628a2.87,2.87,0,0,0-2.626-3.058H51a2.87,2.87,0,0,0-2.626,3.058V62.365h-3.4V48.628a2.87,2.87,0,0,0-2.626-3.058H30.55a2.87,2.87,0,0,0-2.626,3.058V62.365h-3.4V48.628A2.871,2.871,0,0,0,21.9,45.57H19.169a2.87,2.87,0,0,0-2.626,3.058V62.365H13.889V35.935L36.45,12.349,59.012,35.935v6.943a1.121,1.121,0,1,0,2.217,0V38.252l.408.426a2.378,2.378,0,0,0,3.709-.233l2.535-3.288a3.424,3.424,0,0,0-.2-4.318L55.566,18.175a1,1,0,0,0-1.565.1,1.444,1.444,0,0,0,.084,1.823L66.2,32.761a.534.534,0,0,1,.031.673L63.7,36.722a.371.371,0,0,1-.578.036L37.191,9.654a1,1,0,0,0-1.481,0L9.784,36.758a.374.374,0,0,1-.3.122.385.385,0,0,1-.283-.158L6.67,33.434A.535.535,0,0,1,6.7,32.76L34.909,3.271a2.07,2.07,0,0,1,3.083,0l12.5,13.068a1,1,0,0,0,1.565-.1,1.444,1.444,0,0,0-.084-1.823L39.472,1.35a4.056,4.056,0,0,0-6.044,0L5.22,30.84a3.424,3.424,0,0,0-.2,4.318l2.535,3.288a2.483,2.483,0,0,0,1.813,1.01c.048,0,.1,0,.144,0a2.414,2.414,0,0,0,1.751-.782l.408-.427V54.024a11.664,11.664,0,0,0-6.587,2.945,1.435,1.435,0,0,0-.216,1.807,1.06,1.06,0,0,0,.885.513,1.007,1.007,0,0,0,.667-.261,9.659,9.659,0,0,1,5.251-2.411V72.554H2.707a14.116,14.116,0,0,1-.488-3.707,13.916,13.916,0,0,1,1.335-5.984,1.409,1.409,0,0,0-.427-1.756,1.031,1.031,0,0,0-1.508.5A17.114,17.114,0,0,0,.894,74.32a1.124,1.124,0,0,0,1.031.816h71.81a1.124,1.124,0,0,0,1.031-.816,16.966,16.966,0,0,0,.892-5.473c0-8.2-5.733-14.879-12.779-14.879ZM50.59,48.628a.447.447,0,0,1,.41-.477h2.732a.448.448,0,0,1,.41.477V62.066q-.195.144-.382.3H50.59Zm1,16.318A11.243,11.243,0,0,0,50.1,70.6a11.722,11.722,0,0,0,.163,1.952H44.976V64.946ZM30.549,48.152h11.8a.448.448,0,0,1,.41.477V72.555H30.14V48.628a.447.447,0,0,1,.409-.477Zm-11.791.477a.448.448,0,0,1,.41-.477H21.9a.448.448,0,0,1,.41.477V62.365H18.758ZM13.889,72.555V64.946H27.924v7.609Zm46.231,0H52.536a8.712,8.712,0,0,1-.219-1.952c0-4.15,2.9-7.527,6.464-7.527s6.464,3.377,6.464,7.527a8.708,8.708,0,0,1-.219,1.952Zm12.834,0H67.3a11.783,11.783,0,0,0,.163-1.952c0-4.584-2.636-8.463-6.234-9.7V56.7a9.185,9.185,0,0,1,1.651-.151c5.824,0,10.562,5.517,10.562,12.3a14.125,14.125,0,0,1-.488,3.708Zm0,0" transform="translate(0)" fill="#4ba0e8"/>
    <path id="Path_23" data-name="Path 23" d="M266.017,346.95a1.173,1.173,0,0,0,1.173-1.173v-1.331a1.173,1.173,0,0,0-2.346,0v1.331A1.173,1.173,0,0,0,266.017,346.95Zm0,0" transform="translate(-225.776 -283.905)" fill="#4ba0e8"/>
    <path id="Path_24" data-name="Path 24" d="M198.117,149.9a7.592,7.592,0,1,0,7.592-7.592A7.6,7.6,0,0,0,198.117,149.9Zm12.839,0a5.246,5.246,0,1,1-5.247-5.246A5.252,5.252,0,0,1,210.956,149.9Zm0,0" transform="translate(-169.24 -117.184)" fill="#4ba0e8"/>
  </g>
</svg>
