<svg id="office-block" xmlns="http://www.w3.org/2000/svg" width="75.263" height="75.263" viewBox="0 0 75.263 75.263">
  <g id="Group_9" data-name="Group 9" transform="translate(0)">
    <g id="Group_8" data-name="Group 8">
      <path id="Path_20" data-name="Path 20" d="M187.964,140.527a3.687,3.687,0,0,0-.645.056,5.01,5.01,0,0,0-8.746,0,3.687,3.687,0,0,0-.645-.056,3.768,3.768,0,0,0-3.763,3.763,3.694,3.694,0,0,0,.232,1.254h-5.25v-7.526h6.272a1.255,1.255,0,0,0,1.254-1.254V86.588a1.255,1.255,0,0,0-1.254-1.254H137.788a1.255,1.255,0,0,0-1.254,1.254V146.8a1.255,1.255,0,0,0,1.254,1.254h50.175a3.763,3.763,0,1,0,0-7.526ZM169.148,87.843h5.018v7.526h-5.018Zm0,10.035h5.018V105.4h-5.018Zm0,10.035h5.018v7.526h-5.018Zm0,10.035h5.018v7.526h-5.018Zm0,10.035h5.018v7.526h-5.018ZM144.06,145.544h-5.018v-7.526h5.018Zm0-10.035h-5.018v-7.526h5.018Zm0-10.035h-5.018v-7.526h5.018Zm0-10.035h-5.018v-7.526h5.018Zm0-10.035h-5.018V97.878h5.018Zm0-10.035h-5.018V87.843h5.018Zm7.526,50.175h-5.018v-7.526h5.018Zm0-10.035h-5.018v-7.526h5.018Zm0-10.035h-5.018v-7.526h5.018Zm0-10.035h-5.018v-7.526h5.018Zm0-10.035h-5.018V97.878h5.018Zm0-10.035h-5.018V87.843h5.018Zm7.526,50.175H154.1v-7.526h5.017Zm0-10.035H154.1v-7.526h5.017Zm0-10.035H154.1v-7.526h5.017Zm0-10.035H154.1v-7.526h5.017Zm0-10.035H154.1V97.878h5.017Zm0-10.035H154.1V87.843h5.017Zm7.526,50.175h-5.017v-7.526h5.017Zm0-10.035h-5.017v-7.526h5.017Zm0-10.035h-5.017v-7.526h5.017Zm0-10.035h-5.017v-7.526h5.017Zm0-10.035h-5.017V97.878h5.017Zm0-10.035h-5.017V87.843h5.017Zm21.325,50.175H177.929a1.254,1.254,0,0,1,0-2.509,1.24,1.24,0,0,1,.68.2,1.254,1.254,0,0,0,1.9-.771,2.5,2.5,0,0,1,4.872,0,1.254,1.254,0,0,0,1.9.771,1.279,1.279,0,0,1,1.934,1.05A1.257,1.257,0,0,1,187.964,145.544Z" transform="translate(-116.464 -72.79)" fill="#4ba0e8"/>
      <path id="Path_21" data-name="Path 21" d="M27.6,8.781V5.018h8.781a1.255,1.255,0,0,0,1.254-1.254V2.509h5.017V3.763A1.255,1.255,0,0,0,43.9,5.018h8.781V7.526H31.36a1.254,1.254,0,1,0,0,2.509h31.36V62.066a1.254,1.254,0,1,0,2.509,0V8.781a1.255,1.255,0,0,0-1.254-1.254H55.193V3.763a1.255,1.255,0,0,0-1.254-1.254H45.158V1.254A1.255,1.255,0,0,0,43.9,0H36.377a1.255,1.255,0,0,0-1.254,1.254V2.509H26.342a1.255,1.255,0,0,0-1.254,1.254V7.526H16.307a1.255,1.255,0,0,0-1.254,1.254V72.754H7.526V67.61a6.283,6.283,0,0,0,5.018-6.145c0-.163-.071-16.307-6.272-16.307S0,61.3,0,61.465A6.283,6.283,0,0,0,5.017,67.61v5.144H1.254a1.254,1.254,0,0,0,0,2.509H16.307a1.255,1.255,0,0,0,1.254-1.254V10.035h8.781A1.255,1.255,0,0,0,27.6,8.781ZM2.509,61.465c0-6.249,1.678-13.8,3.763-13.8s3.763,7.549,3.763,13.8a3.763,3.763,0,0,1-7.526,0Z" transform="translate(0)" fill="#4ba0e8"/>
    </g>
  </g>
</svg>
