<svg xmlns="http://www.w3.org/2000/svg" width="94" height="94" viewBox="0 0 94 94">
  <g id="vacuum-cleaner" transform="translate(-34 -30.172)">
    <path id="Path_31" data-name="Path 31" d="M139.447,113.19H130.48V75.536a4.727,4.727,0,0,0-3.261-4.432V47.423c0-9.512-8.042-17.251-17.927-17.251S91.363,37.911,91.363,47.423v6.418a4.728,4.728,0,0,0-3.276,4.437v1.751a10.526,10.526,0,0,0-5.337,2.7,19.325,19.325,0,0,0-6.077,13.952v1.988h-.248a6.166,6.166,0,0,0-6.274,6.037V97.739a6.166,6.166,0,0,0,6.274,6.037H63.63a1.57,1.57,0,1,0,0,3.138h41.21a4.424,4.424,0,0,0,4.279-3.138h.413a6.166,6.166,0,0,0,6.274-6.037V84.71a6.166,6.166,0,0,0-6.274-6.037h-.249V77.094a19.284,19.284,0,0,0-6.643-14.469l-.179-.157a10.557,10.557,0,0,0-4.591-2.333V58.277a4.726,4.726,0,0,0-3.246-4.427V47.423c0-7.782,6.58-14.113,14.667-14.113s14.666,6.331,14.666,14.113V71.1a4.727,4.727,0,0,0-3.261,4.432V113.19h-8.968a5.5,5.5,0,1,0,0,10.982h27.718a5.5,5.5,0,1,0,0-10.982ZM92.979,56.709a1.6,1.6,0,0,1,1.63,1.569v1.569H91.348V58.278A1.6,1.6,0,0,1,92.979,56.709ZM73.413,97.739V84.71a2.961,2.961,0,0,1,3.013-2.9h.248v18.827h-.248A2.96,2.96,0,0,1,73.413,97.739Zm12.974,6.037V90.5a4.068,4.068,0,0,1,4.139-3.982H95.2A4.067,4.067,0,0,1,99.337,90.5v13.276H86.387Zm23.145-21.965a2.961,2.961,0,0,1,3.013,2.9V97.74a2.961,2.961,0,0,1-3.013,2.9h-.248V81.812h.248Zm-9.087-16.866a16.194,16.194,0,0,1,5.577,12.148v25.544a1.162,1.162,0,0,1-1.182,1.138H102.6V90.5a7.272,7.272,0,0,0-7.4-7.12H90.526a7.272,7.272,0,0,0-7.4,7.12v13.276H81.118a1.162,1.162,0,0,1-1.183-1.138V76.685a16.225,16.225,0,0,1,5.1-11.715,7.293,7.293,0,0,1,5.04-1.985h5.346a7.334,7.334,0,0,1,4.841,1.8Zm23.513,10.59a1.632,1.632,0,0,1,3.261,0V113.19h-3.261Zm15.489,45.5H111.729a2.355,2.355,0,1,1,0-4.707h27.718a2.355,2.355,0,1,1,0,4.707Z" transform="translate(-17.153)" fill="#fff"/>
    <path id="Path_32" data-name="Path 32" d="M40.2,217.829H35.55a1.55,1.55,0,0,0,0,3.1H40.2a1.55,1.55,0,0,0,0-3.1Z" transform="translate(0 -114.021)" fill="#fff"/>
  </g>
</svg>
