<svg width="23" height="24" viewBox="0 0 23 24" fill="none" xmlns="http://www.w3.org/2000/svg">
<path d="M11.25 9H13.5V5.625H16.875V3.375H13.5V0H11.25V3.375H7.875V5.625H11.25V9ZM6.75 19.125C5.50688 19.125 4.51125 20.1319 4.51125 21.375C4.51125 22.6181 5.50688 23.625 6.75 23.625C7.99312 23.625 9 22.6181 9 21.375C9 20.1319 7.99312 19.125 6.75 19.125ZM18 19.125C16.7569 19.125 15.7613 20.1319 15.7613 21.375C15.7613 22.6181 16.7569 23.625 18 23.625C19.2431 23.625 20.25 22.6181 20.25 21.375C20.25 20.1319 19.2431 19.125 18 19.125ZM6.94688 15.4688C6.94688 15.4181 6.95813 15.3731 6.98063 15.3337L7.99312 13.5H16.3744C17.2181 13.5 17.955 13.0331 18.3431 12.3413L22.6856 4.455L20.7169 3.375H20.7113L19.4681 5.625L16.3687 11.25H8.47688L8.33062 10.9462L5.805 5.625L4.73625 3.375L3.67312 1.125H0V3.375H2.25L6.3 11.9081L4.77562 14.6644C4.60125 14.9906 4.5 15.3563 4.5 15.75C4.5 16.9931 5.50688 18 6.75 18H20.25V15.75H7.22813C7.07063 15.75 6.94688 15.6262 6.94688 15.4688Z" fill="white"/>
</svg>
