<svg width="27" height="27" viewBox="0 0 27 27" fill="none" xmlns="http://www.w3.org/2000/svg">
<path d="M26.3779 24.6684L19.581 17.8715C21.0672 16.0107 21.9584 13.6511 21.9584 11.0834C21.9584 5.07796 17.0888 0.208374 11.0834 0.208374C5.07796 0.208374 0.208374 5.07796 0.208374 11.0834C0.208374 17.0888 5.07796 21.9584 11.0834 21.9584C13.6511 21.9584 16.0107 21.0672 17.8715 19.581L24.6684 26.3779C24.9037 26.6135 25.2157 26.7313 25.523 26.7313C25.8314 26.7313 26.1422 26.6135 26.3779 26.3779C26.8488 25.9066 26.8488 25.139 26.3779 24.6684ZM11.0834 19.5417C6.41196 19.5417 2.62504 15.7548 2.62504 11.0834C2.62504 6.41196 6.41196 2.62504 11.0834 2.62504C15.7548 2.62504 19.5417 6.41196 19.5417 11.0834C19.5417 15.7548 15.7548 19.5417 11.0834 19.5417Z" fill="black"/>
</svg>
