<svg width="18" height="18" viewBox="0 0 18 18" fill="none" xmlns="http://www.w3.org/2000/svg">
<g clip-path="url(#clip0)">
<path d="M9.00001 8.80318C11.0013 8.80318 12.6238 6.83254 12.6238 4.40162C12.6238 1.97064 12.0911 0 9.00001 0C5.9089 0 5.3761 1.97064 5.3761 4.40162C5.3761 6.83254 6.99862 8.80318 9.00001 8.80318Z" fill="black"/>
<path d="M2.15553 15.5239C2.15467 15.3757 2.15382 15.4822 2.15553 15.5239V15.5239Z" fill="black"/>
<path d="M15.8444 15.6396C15.8471 15.5991 15.8453 15.3581 15.8444 15.6396V15.6396Z" fill="black"/>
<path d="M15.8368 15.3461C15.7697 11.1114 15.2166 9.90469 10.9844 9.14087C10.9844 9.14087 10.3886 9.90001 9.00007 9.90001C7.6115 9.90001 7.01565 9.14087 7.01565 9.14087C2.82962 9.89635 2.24293 11.0851 2.16578 15.2085C2.15946 15.5452 2.15653 15.5629 2.1554 15.5238C2.15565 15.5971 2.15596 15.7325 2.15596 15.9687C2.15596 15.9687 3.16355 18 9.00007 18C14.8365 18 15.8442 15.9687 15.8442 15.9687C15.8442 15.817 15.8443 15.7114 15.8444 15.6396C15.8433 15.6638 15.8411 15.617 15.8368 15.3461Z" fill="black"/>
</g>
<defs>
<clipPath id="clip0">
<rect width="18" height="18" fill="white"/>
</clipPath>
</defs>
</svg>
