<?xml version="1.0" ?><svg id="Layer_1" style="enable-background:new 0 0 32 32;" version="1.1" viewBox="0 0 32 32" xml:space="preserve" xmlns="http://www.w3.org/2000/svg" xmlns:xlink="http://www.w3.org/1999/xlink"><style type="text/css">
	.st0{clip-path:url(#SVGID_2_);}
	.st1{clip-path:url(#SVGID_4_);}
</style><g><g><path d="M16,28c-0.5527344,0-1-0.4472656-1-1V5c0-0.5522461,0.4472656-1,1-1s1,0.4477539,1,1v22    C17,27.5527344,16.5527344,28,16,28z"/></g><g><path d="M11.6669922,26c-0.5527344,0-1-0.4472656-1-1V7c0-0.5522461,0.4472656-1,1-1s1,0.4477539,1,1v18    C12.6669922,25.5527344,12.2197266,26,11.6669922,26z"/></g><g><g><defs><line id="SVGID_1_" x1="7.3333335" x2="7.3333335" y1="9" y2="23"/></defs><use style="overflow:visible;" xlink:href="#SVGID_1_"/><clipPath id="SVGID_2_"><use style="overflow:visible;" xlink:href="#SVGID_1_"/></clipPath></g><path d="M7.3330078,24c-0.5527344,0-1-0.4472656-1-1V9c0-0.5522461,0.4472656-1,1-1s1,0.4477539,1,1v14    C8.3330078,23.5527344,7.8857422,24,7.3330078,24z"/></g><g><path d="M3,21c-0.5527344,0-1-0.4472656-1-1v-8c0-0.5522461,0.4472656-1,1-1s1,0.4477539,1,1v8C4,20.5527344,3.5527344,21,3,21z"/></g><g><path d="M29,21c-0.5527344,0-1-0.4472656-1-1v-8c0-0.5522461,0.4472656-1,1-1s1,0.4477539,1,1v8    C30,20.5527344,29.5527344,21,29,21z"/></g><g><g><defs><line id="SVGID_3_" x1="24.666666" x2="24.666666" y1="9" y2="23"/></defs><use style="overflow:visible;" xlink:href="#SVGID_3_"/><clipPath id="SVGID_4_"><use style="overflow:visible;" xlink:href="#SVGID_3_"/></clipPath></g><path d="M24.6669922,24c-0.5527344,0-1-0.4472656-1-1V9c0-0.5522461,0.4472656-1,1-1s1,0.4477539,1,1v14    C25.6669922,23.5527344,25.2197266,24,24.6669922,24z"/></g><g><path d="M20.3330078,26c-0.5527344,0-1-0.4472656-1-1V7c0-0.5522461,0.4472656-1,1-1s1,0.4477539,1,1v18    C21.3330078,25.5527344,20.8857422,26,20.3330078,26z"/></g></g></svg>