<svg width="27" height="27" viewBox="0 0 27 27" fill="none" xmlns="http://www.w3.org/2000/svg">
<path d="M9.78314 13.5001C9.78314 11.4478 11.4464 9.78303 13.4998 9.78303C15.5532 9.78303 17.2168 11.4472 17.2168 13.5001C17.2168 15.5525 15.5534 17.2169 13.4998 17.2169C11.447 17.2169 9.78314 15.5527 9.78314 13.5001ZM2.41382 13.4888C4.95033 16.8415 8.97199 19.008 13.4996 19.008C18.0278 19.008 22.0491 16.8415 24.5856 13.4888C22.0493 10.1364 18.0278 7.96985 13.4998 7.96985C8.9718 7.96985 4.95053 10.1364 2.41382 13.4888ZM0.135057 13.4951C2.92551 9.05989 7.86728 6.11133 13.4998 6.11133C19.1323 6.11133 24.0745 9.05989 26.8649 13.4951C24.0745 17.9361 19.1323 20.8884 13.4998 20.8884C7.86728 20.8884 2.92551 17.9361 0.135057 13.4951Z" fill="white"/>
</svg>
